HIERARCHY
ROOT Pelvis
{
	OFFSET 0.000000 0.000000 0.000000
	CHANNELS 6 Xposition Yposition Zposition Xrotation Yrotation Zrotation
	JOINT LeftUpLeg_virtual
	{
		OFFSET 0.000000 0.000000 0.000000
		CHANNELS 3 Xrotation Yrotation Zrotation
		JOINT LeftUpLeg
		{
			OFFSET 18.735201 -5.666702 -4.541200
			CHANNELS 3 Xrotation Yrotation Zrotation
			JOINT LeftLeg
			{
				OFFSET -0.021200 -31.938179 0.493100
				CHANNELS 3 Xrotation Yrotation Zrotation
				JOINT LeftFoot
				{
					OFFSET 0.021200 -31.938179 -4.336299
					CHANNELS 3 Xrotation Yrotation Zrotation
					JOINT LeftToeBase
					{
						OFFSET 0.943001 -26.722000 15.023500
						CHANNELS 3 Xrotation Yrotation Zrotation
						End Site
						{
							OFFSET 0 0 0
						}
					}
				}
			}
		}
	}
	JOINT RightUpLeg_virtual
	{
		OFFSET 0.000000 0.000000 0.000000
		CHANNELS 3 Xrotation Yrotation Zrotation
		JOINT RightUpLeg
		{
			OFFSET -18.735201 -5.666702 -4.541200
			CHANNELS 3 Xrotation Yrotation Zrotation
			JOINT RightLeg
			{
				OFFSET 0.018946 -31.938133 0.493100
				CHANNELS 3 Xrotation Yrotation Zrotation
				JOINT RightFoot
				{
					OFFSET -0.018946 -31.938126 -4.336299
					CHANNELS 3 Xrotation Yrotation Zrotation
					JOINT RightToeBase
					{
						OFFSET -0.943001 -26.722004 15.023500
						CHANNELS 3 Xrotation Yrotation Zrotation
						End Site
						{
							OFFSET 0 0 0
						}
					}
				}
			}
		}
	}
	JOINT Hips_virtual
	{
		OFFSET 0.000000 0.000000 0.000000
		CHANNELS 3 Xrotation Yrotation Zrotation
		JOINT Hips
		{
			OFFSET -0.000000 -0.000000 -0.000000
			CHANNELS 3 Xrotation Yrotation Zrotation
			JOINT Spine
			{
				OFFSET 0.000000 10.199997 -0.299500
				CHANNELS 3 Xrotation Yrotation Zrotation
				JOINT Spine1
				{
					OFFSET 0.000000 11.900002 -1.516600
					CHANNELS 3 Xrotation Yrotation Zrotation
					JOINT Spine2
					{
						OFFSET 0.000000 13.600006 -2.842500
						CHANNELS 3 Xrotation Yrotation Zrotation
						JOINT Neck_virtual
						{
							OFFSET 0.000000 0.000000 0.000000
							CHANNELS 3 Xrotation Yrotation Zrotation
							JOINT Neck
							{
								OFFSET 0.000000 9.624100 -2.890100
								CHANNELS 3 Xrotation Yrotation Zrotation
								JOINT Head
								{
									OFFSET 0.000000 14.068802 -1.351900
									CHANNELS 3 Xrotation Yrotation Zrotation
									End Site
									{
										OFFSET 0 0 0
									}
								}
							}
						}
						JOINT LeftShoulder_virtual
						{
							OFFSET 0.000000 0.000000 0.000000
							CHANNELS 3 Xrotation Yrotation Zrotation
							JOINT LeftShoulder
							{
								OFFSET 15.263000 10.923401 -0.547700
								CHANNELS 3 Xrotation Yrotation Zrotation
								JOINT LeftArm
								{
									OFFSET 25.438599 -2.830597 -13.032500
									CHANNELS 3 Xrotation Yrotation Zrotation
									JOINT LeftForeArm
									{
										OFFSET 29.960503 0.000000 0.000000
										CHANNELS 3 Xrotation Yrotation Zrotation
										JOINT LeftHand
										{
											OFFSET 27.849251 0.000000 0.000000
											CHANNELS 3 Xrotation Yrotation Zrotation
											End Site
											{
												OFFSET 0 0 0
											}
										}
									}
								}
							}
						}
						JOINT RightShoulder_virtual
						{
							OFFSET 0.000000 0.000000 0.000000
							CHANNELS 3 Xrotation Yrotation Zrotation
							JOINT RightShoulder
							{
								OFFSET -15.263000 10.923401 -0.547700
								CHANNELS 3 Xrotation Yrotation Zrotation
								JOINT RightArm
								{
									OFFSET -25.438599 -2.830597 -13.032500
									CHANNELS 3 Xrotation Yrotation Zrotation
									JOINT RightForeArm
									{
										OFFSET -29.960503 0.000000 0.000000
										CHANNELS 3 Xrotation Yrotation Zrotation
										JOINT RightHand
										{
											OFFSET -27.849251 0.000000 0.000000
											CHANNELS 3 Xrotation Yrotation Zrotation
											End Site
											{
												OFFSET 0 0 0
											}
										}
									}
								}
							}
						}
					}
				}
			}
		}
	}
}
MOTION
Frames: 9
Frame Time: 0.03333333
-1.051281 73.665298 -46.754944 0.000000 0.000000 0.000000 16.430853 -76.698667 15.268278 -43.536056 -10.282315 28.959196 79.569177 10.741284 0.598362 -23.340882 8.357266 -33.925143 0.000000 0.000000 0.000000 16.430853 -76.698667 15.268278 -56.829933 1.907461 -17.859635 86.151000 21.439438 -5.061784 -33.210770 -2.164641 5.496567 0.000000 0.000000 0.000000 16.430853 -76.698667 15.268278 0.000000 -0.000001 0.000000 4.443795 9.377075 -3.033990 9.594759 18.344802 -7.012218 0.000000 0.000000 0.000000 9.594760 18.344790 -7.012212 0.550278 0.503879 0.193042 0.000000 0.000000 0.000000 9.594760 18.344790 -7.012212 4.442670 -4.896766 0.391714 -74.044845 -32.200882 -59.779557 45.629967 -71.166425 44.297366 0.000000 0.000000 0.000000 9.594760 18.344790 -7.012212 3.889430 8.333843 -7.261187 -42.000233 -3.203195 27.938517 -12.789884 47.794932 2.424342 0.000000 0.000000 0.000000 
-0.261089 72.317520 -47.533592 0.000000 0.000000 0.000000 29.761603 -73.880681 27.624188 -51.352251 -12.209589 30.307482 81.350224 8.313602 0.110110 -22.169315 7.404174 -32.807956 0.000000 0.000000 0.000000 29.761603 -73.880681 27.624188 -62.530744 2.651722 -17.068277 87.937190 19.649609 -4.127129 -33.473026 -2.304941 5.820664 0.000000 0.000000 0.000000 29.761603 -73.880681 27.624188 0.000001 0.000001 -0.000000 4.657272 9.047281 -3.179322 10.016252 17.679736 -7.291494 0.000000 0.000000 0.000000 10.016238 17.679759 -7.291500 0.242815 1.290105 0.337314 0.000000 0.000000 0.000000 10.016238 17.679759 -7.291500 4.231865 -4.936955 -0.833280 -58.521389 -25.699400 -53.642653 41.104516 -69.046471 41.375824 0.000000 0.000000 0.000000 10.016238 17.679759 -7.291500 3.219527 7.942034 -3.888784 -35.652358 -7.358678 27.766293 -11.633918 45.311434 5.140172 0.000000 0.000000 0.000000 
0.580534 71.544846 -48.046669 0.000000 0.000000 0.000000 37.559774 -70.577574 35.161554 -58.124445 -13.135670 29.791267 81.509961 7.052595 -0.179376 -20.318298 6.490552 -31.455374 0.000000 0.000000 0.000000 37.559774 -70.577574 35.161554 -67.155608 4.053719 -16.742235 88.851534 17.571461 -3.638273 -33.449748 -2.739187 6.961081 0.000000 0.000000 0.000000 37.559774 -70.577574 35.161554 0.000001 -0.000001 0.000000 4.888544 8.740012 -3.216918 10.467512 17.058182 -7.399224 0.000000 0.000000 0.000000 10.467518 17.058177 -7.399228 -0.048788 2.047765 0.442065 0.000000 0.000000 0.000000 10.467518 17.058177 -7.399228 3.963826 -4.635895 -1.485581 -43.366695 -17.194679 -50.718683 30.223731 -66.614138 31.337290 0.000000 0.000000 0.000000 10.467518 17.058177 -7.399228 2.670365 7.955734 -0.110399 -26.274254 -14.550859 27.245756 -10.625641 45.470277 7.582555 0.000000 0.000000 0.000000 
1.223419 71.323868 -48.255867 0.000000 0.000000 0.000000 40.998094 -67.669881 38.896097 -62.778584 -12.946831 28.054316 80.421133 6.901469 0.006274 -18.413229 5.769362 -30.433465 0.000000 0.000000 0.000000 40.998094 -67.669881 38.896097 -69.874051 5.825222 -16.765376 89.058796 15.423177 -3.450016 -33.479347 -3.212493 8.551530 0.000000 0.000000 0.000000 40.998094 -67.669881 38.896097 -0.000001 -0.000001 -0.000000 5.105176 8.438104 -3.094029 10.870821 16.443028 -7.208351 0.000000 0.000000 0.000000 10.870820 16.442987 -7.208340 -0.327183 2.686779 0.514307 0.000000 0.000000 0.000000 10.870820 16.442987 -7.208340 3.581014 -4.135685 -2.293952 -30.959875 -8.583845 -52.621587 18.886462 -61.626434 19.603396 0.000000 0.000000 0.000000 10.870820 16.442987 -7.208340 2.171232 8.417435 3.878703 -15.534622 -23.529083 30.299020 -10.437996 47.028612 9.884630 0.000000 0.000000 0.000000 
1.549667 71.550919 -48.162071 0.000000 0.000000 0.000000 41.498730 -65.421833 39.950982 -65.304941 -12.043498 25.931035 78.705861 7.237087 0.418857 -16.934470 5.166652 -29.541965 0.000000 0.000000 0.000000 41.498730 -65.421833 39.950982 -70.436995 7.461438 -17.189418 88.636526 13.489296 -3.363874 -33.702182 -3.716245 10.193460 0.000000 0.000000 0.000000 41.498730 -65.421833 39.950982 0.000000 -0.000001 0.000000 5.235490 8.107242 -2.852824 11.081067 15.781147 -6.767760 0.000000 0.000000 0.000000 11.081069 15.781150 -6.767768 -0.549146 3.132244 0.558478 0.000000 0.000000 0.000000 11.081069 15.781150 -6.767768 3.049852 -3.405248 -3.544954 -22.016864 -2.037438 -57.149549 11.625843 -54.757729 11.207371 0.000000 0.000000 0.000000 11.081069 15.781150 -6.767768 1.690207 8.983274 7.466852 -6.361676 -30.273000 37.373654 -11.042705 46.209396 11.671513 0.000000 0.000000 0.000000 
1.612024 72.125031 -47.804741 0.000000 0.000000 0.000000 39.856179 -63.642931 38.963371 -66.227666 -10.730954 23.968768 76.624764 7.165267 0.584368 -15.867028 4.605032 -28.237411 0.000000 0.000000 0.000000 39.856179 -63.642931 38.963371 -68.997198 8.636830 -18.216710 87.677697 11.926557 -3.258200 -34.299823 -4.294538 11.682899 0.000000 0.000000 0.000000 39.856179 -63.642931 38.963371 0.000001 0.000000 0.000000 5.275357 7.740850 -2.608822 11.107517 15.061310 -6.309674 0.000000 0.000000 0.000000 11.107519 15.061312 -6.309675 -0.689796 3.362945 0.573782 0.000000 0.000000 0.000000 11.107519 15.061312 -6.309675 2.450009 -2.519619 -5.037099 -16.129160 2.154837 -61.838941 8.352820 -48.812131 6.678302 0.000000 0.000000 0.000000 11.107519 15.061312 -6.309675 1.308023 9.379997 10.066183 -1.273724 -33.119919 44.699169 -11.414118 41.601398 11.685708 0.000000 0.000000 0.000000 
1.469658 72.989700 -47.239815 0.000000 0.000000 0.000000 36.508126 -62.121055 36.331894 -65.909085 -9.088324 22.350747 74.241096 6.263982 0.331591 -15.070281 4.056320 -26.242965 0.000000 0.000000 0.000000 36.508126 -62.121055 36.331894 -65.790937 9.165634 -19.838165 86.203025 10.636222 -3.109406 -35.159106 -4.935756 13.011284 0.000000 0.000000 0.000000 36.508126 -62.121055 36.331894 0.000000 0.000002 0.000000 5.290610 7.358603 -2.445429 11.096264 14.317437 -6.012724 0.000000 0.000000 0.000000 11.096266 14.317436 -6.012718 -0.775517 3.420175 0.565939 0.000000 0.000000 0.000000 11.096266 14.317436 -6.012718 1.919365 -1.658192 -6.407564 -12.462386 4.667549 -65.750072 7.622232 -45.118864 4.790456 0.000000 0.000000 0.000000 11.096266 14.317436 -6.012718 1.067746 9.583891 11.638583 -0.066725 -33.609937 49.798639 -11.288640 35.301908 10.165002 0.000000 0.000000 0.000000 
1.124043 74.124832 -46.523262 0.000000 0.000000 0.000000 31.803485 -60.767408 32.358096 -64.372033 -7.198230 21.080588 71.518255 4.638161 -0.146759 -14.414522 3.530648 -23.808971 0.000000 0.000000 0.000000 31.803485 -60.767408 32.358096 -60.941133 8.883501 -21.767550 84.101082 9.427707 -2.931854 -36.161262 -5.607989 14.228843 0.000000 0.000000 0.000000 31.803485 -60.767408 32.358096 0.000000 -0.000001 0.000000 5.336366 6.979462 -2.355219 11.156142 13.591858 -5.858741 0.000000 0.000000 0.000000 11.156134 13.591867 -5.858749 -0.842119 3.360722 0.544695 0.000000 0.000000 0.000000 11.156134 13.591867 -5.858749 1.539218 -0.979782 -7.449234 -10.248672 6.198724 -68.784171 7.803281 -42.857122 4.145315 0.000000 0.000000 0.000000 11.156134 13.591867 -5.858749 0.914565 9.691367 12.616668 -0.464400 -33.541372 52.874888 -11.133629 30.111490 8.534370 0.000000 0.000000 0.000000 
0.575403 75.545502 -45.722191 0.000000 0.000000 0.000000 26.088092 -59.537536 27.299966 -61.574306 -5.236283 20.152258 68.400806 2.571257 -0.617541 -13.785754 3.044554 -21.299050 0.000000 0.000000 0.000000 26.088092 -59.537536 27.299966 -54.624305 7.640361 -23.550432 81.105238 8.117763 -2.734506 -37.030581 -6.244300 15.360013 0.000000 0.000000 0.000000 26.088092 -59.537536 27.299966 0.000000 0.000001 -0.000001 5.403235 6.608810 -2.287768 11.258066 12.905525 -5.723237 0.000000 0.000000 0.000000 11.258057 12.905536 -5.723242 -0.899546 3.213735 0.515578 0.000000 0.000000 0.000000 11.258057 12.905536 -5.723242 1.302175 -0.535928 -8.171410 -8.929541 7.210076 -70.942115 7.684428 -41.119125 3.743641 0.000000 0.000000 0.000000 11.258057 12.905536 -5.723242 0.788701 9.767809 13.369409 -0.649602 -33.621531 54.840702 -11.126711 27.480236 7.662380 0.000000 0.000000 0.000000 
